<?xml version="1.0" encoding="UTF-8" standalone="no"?>
<svg
   xmlns:dc="http://purl.org/dc/elements/1.1/"
   xmlns:cc="http://creativecommons.org/ns#"
   xmlns:rdf="http://www.w3.org/1999/02/22-rdf-syntax-ns#"
   xmlns:svg="http://www.w3.org/2000/svg"
   xmlns="http://www.w3.org/2000/svg"
   width="64.02916mm"
   height="95.779167mm"
   viewBox="0 0 64.02916 95.779167"
   version="1.1"
   id="svg996">
  <defs
     id="defs990" />
  <metadata
     id="metadata993">
    <rdf:RDF>
      <cc:Work
         rdf:about="">
        <dc:format>image/svg+xml</dc:format>
        <dc:type
           rdf:resource="http://purl.org/dc/dcmitype/StillImage" />
        <dc:title></dc:title>
      </cc:Work>
    </rdf:RDF>
  </metadata>
  <g
     id="layer1"
     transform="translate(-314.81336,65.080738)">
    <rect
       width="63.499996"
       height="95.25"
       rx="10.583333"
       ry="10.583333"
       x="315.07794"
       y="-64.816154"
       id="rect2987-8-5-81-2-1"
       style="fill:#ffffff;fill-opacity:1;fill-rule:evenodd;stroke:#000000;stroke-width:0.529167;stroke-miterlimit:4;stroke-dasharray:none" />
    <rect
       width="52.916664"
       height="84.666664"
       rx="5.2916665"
       ry="5.2916665"
       x="320.3696"
       y="-59.52449"
       id="rect3757-26-33-5-9-9"
       style="fill:#000000;fill-opacity:1;fill-rule:evenodd;stroke:none;stroke-width:1.05833" />
    <path
       d="m 362.70293,-43.649493 c -23.38005,0 -42.33333,18.953278 -42.33333,42.3333318 0,5.845016 4.73832,10.583333 10.58333,10.583333 23.38006,0 42.33334,-18.9532784 42.33334,-42.3333318 0,-5.845016 -4.73832,-10.583333 -10.58334,-10.583333 z"
       id="path3773-0-4-8-4-60-3-86-5-6"
       style="fill:#ffffff;fill-opacity:1;fill-rule:evenodd;stroke:none;stroke-width:1.05833" />
    <path
       d="m 336.13877,-56.87867 -5.18584,10.583333 v 2.645844 h 6.35 v 2.645844 h 2.64584 v -2.645844 h 1.5875 v -2.645844 h -1.5875 v -5.291656 h -2.64584 v 5.291656 h -3.59833 l 5.18583,-10.583333 z"
       id="rect3980-7-6-2-9-5-60-5-3-1-5"
       style="fill:#ffffff;fill-opacity:1;stroke:none;stroke-width:1.05833" />
    <path
       d="m 324.07377,-51.587014 v 2.645854 h -2.64584 v 2.645791 h 2.64584 v 2.645855 h 2.64583 v -2.645855 h 2.64583 v -2.645791 h -2.64583 v -2.645854 z"
       id="rect5649-4"
       style="fill:#ffffff;fill-opacity:1;fill-rule:evenodd;stroke:none;stroke-width:1.05833" />
    <path
       d="m 357.5171,22.496349 5.18583,-10.583333 V 9.2671718 h -6.35 V 6.6213279 h -2.64583 v 2.6458439 h -1.5875 v 2.6458442 h 1.5875 v 5.291656 h 2.64583 v -5.291656 h 3.59834 l -5.18584,10.583333 z"
       id="rect3980-7-6-2-9-5-60-5-3-1-8-9"
       style="fill:#ffffff;fill-opacity:1;stroke:none;stroke-width:1.05833" />
    <path
       d="m 369.5821,17.204693 v -2.645855 h 2.64583 V 11.913047 H 369.5821 V 9.2671929 h -2.64583 v 2.6458541 h -2.64584 v 2.645791 h 2.64584 v 2.645855 z"
       id="rect5649-1-1"
       style="fill:#ffffff;fill-opacity:1;fill-rule:evenodd;stroke:none;stroke-width:1.05833" />
    <g
       transform="matrix(1.0583333,0,0,1.0583333,-383.42205,-342.48281)"
       id="g6111-38-2">
      <rect
         width="15"
         height="23.40037"
         rx="2.5"
         ry="2.3477995"
         x="762.46088"
         y="306.66135"
         transform="matrix(1,0,-0.27472185,0.96152374,0,0)"
         id="rect6095-2-9"
         style="fill:#ffffff;fill-opacity:1;fill-rule:evenodd;stroke:#000000;stroke-width:0.509906;stroke-miterlimit:4;stroke-dasharray:none" />
      <rect
         width="10"
         height="18.200279"
         rx="2.4999874"
         ry="2.3477879"
         x="764.96088"
         y="309.26141"
         transform="matrix(1,0,-0.27472185,0.96152374,0,0)"
         id="rect6097-5-7"
         style="fill:#ff5555;fill-opacity:1;fill-rule:evenodd;stroke:none" />
    </g>
    <g
       transform="matrix(1.0583333,0,0,1.0583333,-372.83873,-350.42031)"
       id="g6111-62-2-1">
      <rect
         width="15"
         height="23.40037"
         rx="2.5"
         ry="2.3477995"
         x="762.46088"
         y="306.66135"
         transform="matrix(1,0,-0.27472185,0.96152374,0,0)"
         id="rect6095-14-0-3"
         style="fill:#ffffff;fill-opacity:1;fill-rule:evenodd;stroke:#000000;stroke-width:0.509906;stroke-miterlimit:4;stroke-dasharray:none" />
      <rect
         width="10"
         height="18.200279"
         rx="2.4999874"
         ry="2.3477879"
         x="764.96088"
         y="309.26141"
         transform="matrix(1,0,-0.27472185,0.96152374,0,0)"
         id="rect6097-6-3-2"
         style="fill:#5555ff;fill-opacity:1;fill-rule:evenodd;stroke:none" />
    </g>
    <g
       transform="matrix(1.0583333,0,0,1.0583333,-375.48455,-334.54531)"
       id="g6111-3-5">
      <rect
         width="15"
         height="23.40037"
         rx="2.5"
         ry="2.3477995"
         x="762.46088"
         y="306.66135"
         transform="matrix(1,0,-0.27472185,0.96152374,0,0)"
         id="rect6095-0-3"
         style="fill:#ffffff;fill-opacity:1;fill-rule:evenodd;stroke:#000000;stroke-width:0.509906;stroke-miterlimit:4;stroke-dasharray:none" />
      <rect
         width="10"
         height="18.200279"
         rx="2.4999874"
         ry="2.3477879"
         x="764.96088"
         y="309.26141"
         transform="matrix(1,0,-0.27472185,0.96152374,0,0)"
         id="rect6097-7-4"
         style="fill:#ffaa00;fill-opacity:1;fill-rule:evenodd;stroke:none" />
    </g>
    <g
       transform="matrix(1.0583333,0,0,1.0583333,-364.90123,-342.4828)"
       id="g6111-62-7-3">
      <rect
         width="15"
         height="23.40037"
         rx="2.5"
         ry="2.3477995"
         x="762.46088"
         y="306.66135"
         transform="matrix(1,0,-0.27472185,0.96152374,0,0)"
         id="rect6095-14-8-2"
         style="fill:#ffffff;fill-opacity:1;fill-rule:evenodd;stroke:#000000;stroke-width:0.509906;stroke-miterlimit:4;stroke-dasharray:none" />
      <rect
         width="10"
         height="18.200279"
         rx="2.4999874"
         ry="2.3477879"
         x="764.96088"
         y="309.26141"
         transform="matrix(1,0,-0.27472185,0.96152374,0,0)"
         id="rect6097-6-7-1"
         style="fill:#55aa55;fill-opacity:1;fill-rule:evenodd;stroke:none" />
    </g>
  </g>
</svg>
