<?xml version="1.0" encoding="UTF-8" standalone="no"?>
<svg
   xmlns:dc="http://purl.org/dc/elements/1.1/"
   xmlns:cc="http://creativecommons.org/ns#"
   xmlns:rdf="http://www.w3.org/1999/02/22-rdf-syntax-ns#"
   xmlns:svg="http://www.w3.org/2000/svg"
   xmlns="http://www.w3.org/2000/svg"
   width="64.02916mm"
   height="95.779167mm"
   viewBox="0 0 64.02916 95.779167"
   version="1.1"
   id="svg996">
  <defs
     id="defs990" />
  <metadata
     id="metadata993">
    <rdf:RDF>
      <cc:Work
         rdf:about="">
        <dc:format>image/svg+xml</dc:format>
        <dc:type
           rdf:resource="http://purl.org/dc/dcmitype/StillImage" />
        <dc:title></dc:title>
      </cc:Work>
    </rdf:RDF>
  </metadata>
  <g
     id="layer1"
     transform="translate(-288.88419,54.72419)">
    <rect
       width="63.499996"
       height="95.25"
       rx="10.583333"
       ry="10.583333"
       x="289.14877"
       y="-54.459606"
       id="rect2987-8-5-81-7-0-2"
       style="fill:#ffffff;fill-opacity:1;fill-rule:evenodd;stroke:#000000;stroke-width:0.529167;stroke-miterlimit:4;stroke-dasharray:none" />
    <rect
       width="52.916664"
       height="84.666664"
       rx="5.2916665"
       ry="5.2916665"
       x="294.44043"
       y="-49.167938"
       id="rect3757-26-33-5-2-5-8"
       style="fill:#ffaa00;fill-opacity:1;fill-rule:evenodd;stroke:none;stroke-width:1.05833" />
    <path
       d="m 336.77377,-33.292964 c -23.38006,0 -42.33333,18.953278 -42.33333,42.3333316 0,5.8450164 4.73831,10.5833334 10.58333,10.5833334 23.38005,0 42.33333,-18.95327873 42.33333,-42.333332 0,-5.845016 -4.73832,-10.583333 -10.58333,-10.583333 z"
       id="path3773-0-4-8-4-60-3-86-29-1-2"
       style="fill:#ffffff;fill-opacity:1;fill-rule:evenodd;stroke:none;stroke-width:1.05833" />
    <rect
       width="15.874999"
       height="24.76539"
       rx="2.6458333"
       ry="2.4847546"
       x="306.8508"
       y="-15.363279"
       transform="matrix(1,0,-0.27472185,0.96152374,0,0)"
       id="rect6095-5-1-9"
       style="fill:#ffffff;fill-opacity:1;fill-rule:evenodd;stroke:#000000;stroke-width:0.53965;stroke-miterlimit:4;stroke-dasharray:none" />
    <rect
       width="10.583333"
       height="19.261961"
       rx="2.6458199"
       ry="2.4847422"
       x="309.49664"
       y="-12.611509"
       transform="matrix(1,0,-0.27472185,0.96152374,0,0)"
       id="rect6097-3-5-4"
       style="fill:#ffaa00;fill-opacity:1;fill-rule:evenodd;stroke:none;stroke-width:1.05833" />
    <rect
       width="15.874999"
       height="24.76539"
       rx="2.6458333"
       ry="2.4847546"
       x="315.16617"
       y="-23.618395"
       transform="matrix(1,0,-0.27472185,0.96152374,0,0)"
       id="rect6095-1-9-4"
       style="fill:#ffffff;fill-opacity:1;fill-rule:evenodd;stroke:#000000;stroke-width:0.53965;stroke-miterlimit:4;stroke-dasharray:none" />
    <rect
       width="10.583333"
       height="19.261961"
       rx="2.6458199"
       ry="2.4847422"
       x="317.81201"
       y="-20.866625"
       transform="matrix(1,0,-0.27472185,0.96152374,0,0)"
       id="rect6097-8-08-8"
       style="fill:#ffaa00;fill-opacity:1;fill-rule:evenodd;stroke:none;stroke-width:1.05833" />
    <path
       d="m 298.1446,-41.230485 v 2.645854 h -2.64583 v 2.645791 h 2.64583 v 2.645854 h 2.64584 v -2.645854 h 2.64583 v -2.645791 h -2.64583 v -2.645854 z"
       id="rect5649-4-2-7-6-2"
       style="fill:#ffffff;fill-opacity:1;fill-rule:evenodd;stroke:none;stroke-width:1.05833" />
    <path
       d="m 310.31544,-46.522131 c -2.93159,0 -5.29167,2.360084 -5.29167,5.291667 v 0.529166 h 2.64583 v -0.529166 c 0,-1.465792 1.18004,-2.645833 2.64584,-2.645833 1.46579,0 2.64583,1.180041 2.64583,2.645833 0,0.596635 -0.49505,1.767491 -1.01201,2.174356 -2.80712,2.209239 -2.77749,1.844379 -6.92549,4.70481 v 3.704167 h 5.29167 5.29166 v -2.645833 -1.058334 h -2.64583 v 1.058334 h -2.64583 -2.11667 c 3.27557,-2.3065 3.51509,-2.250599 6.08175,-4.547521 0.82237,-0.735944 1.32658,-2.196603 1.32658,-3.389979 0,-2.931583 -2.36008,-5.291667 -5.29166,-5.291667 z"
       id="rect3163-52-9-8-1-1-2-7-3-6-0-9-5-9-2-20-7"
       style="fill:#ffffff;fill-opacity:1;stroke:none;stroke-width:1.05833" />
    <path
       d="m 343.65293,27.561338 v -2.645833 h 2.64584 v -2.645728 h -2.64584 v -2.645939 h -2.64583 v 2.645939 h -2.64583 v 2.645728 h 2.64583 v 2.645833 z"
       id="rect5649-4-2-7-0-2-2"
       style="fill:#ffffff;fill-opacity:1;fill-rule:evenodd;stroke:none;stroke-width:1.05833" />
    <path
       d="m 331.4821,32.853004 c 2.93158,0 5.29167,-2.360083 5.29167,-5.291666 v -0.529167 h -2.64584 v 0.529167 c 0,1.465792 -1.18004,2.645833 -2.64583,2.645833 -1.46579,0 -2.64583,-1.180041 -2.64583,-2.645833 0,-0.596583 0.49504,-1.767417 1.01201,-2.174346 2.80712,-2.209165 2.77749,-1.844357 6.92549,-4.704821 v -3.704166 h -5.29167 -5.29167 v 2.645833 1.058333 h 2.64584 v -1.058333 h 2.64583 2.11667 c -3.27558,2.306532 -3.5151,2.250652 -6.08176,4.547553 -0.82236,0.735965 -1.32658,2.19657 -1.32658,3.389947 0,2.931583 2.36009,5.291666 5.29167,5.291666 z"
       id="rect3163-52-9-8-1-1-2-7-3-6-0-9-5-9-2-2-8-5"
       style="fill:#ffffff;fill-opacity:1;stroke:none;stroke-width:1.05833" />
  </g>
</svg>
