<?xml version="1.0" encoding="UTF-8" standalone="no"?>
<svg
   xmlns:dc="http://purl.org/dc/elements/1.1/"
   xmlns:cc="http://creativecommons.org/ns#"
   xmlns:rdf="http://www.w3.org/1999/02/22-rdf-syntax-ns#"
   xmlns:svg="http://www.w3.org/2000/svg"
   xmlns="http://www.w3.org/2000/svg"
   width="64.02916mm"
   height="95.779167mm"
   viewBox="0 0 64.02916 95.779167"
   version="1.1"
   id="svg996">
  <defs
     id="defs990" />
  <metadata
     id="metadata993">
    <rdf:RDF>
      <cc:Work
         rdf:about="">
        <dc:format>image/svg+xml</dc:format>
        <dc:type
           rdf:resource="http://purl.org/dc/dcmitype/StillImage" />
        <dc:title></dc:title>
      </cc:Work>
    </rdf:RDF>
  </metadata>
  <g
     id="layer1"
     transform="translate(-179.0821,63.606647)">
    <rect
       width="63.499996"
       height="95.25"
       rx="10.583333"
       ry="10.583333"
       x="179.34668"
       y="-63.342064"
       id="rect2987-4"
       style="fill:#ffffff;fill-opacity:1;fill-rule:evenodd;stroke:#000000;stroke-width:0.529167;stroke-miterlimit:4;stroke-dasharray:none" />
    <rect
       width="52.916664"
       height="84.666664"
       rx="5.2916665"
       ry="5.2916665"
       x="184.63835"
       y="-58.0504"
       id="rect3757-2"
       style="fill:#5555ff;fill-opacity:1;fill-rule:evenodd;stroke:none;stroke-width:1.05833" />
    <path
       d="m 226.97168,-42.175433 c -23.38005,0 -42.33333,18.953278 -42.33333,42.333332 0,5.8450161 4.73832,10.583333 10.58334,10.583333 23.38005,0 42.33333,-18.9532783 42.33333,-42.333332 0,-5.845016 -4.73832,-10.583333 -10.58334,-10.583333 z"
       id="path3773-0-4-8-4-3"
       style="fill:#ffffff;fill-opacity:1;fill-rule:evenodd;stroke:none;stroke-width:1.05833" />
    <path
       d="m 202.10085,-31.592079 v 10.583333 h 5.29167 v -5.291666 h 10.58333 L 207.39252,0.15792017 h 5.29166 L 223.26752,-26.300412 v -5.291667 h -15.875 z"
       id="rect4014"
       style="fill:#5555ff;fill-opacity:1;fill-rule:evenodd;stroke:none;stroke-width:1.05833" />
    <path
       d="m 187.28419,-55.404578 v 5.291666 h 2.64583 v -2.645833 h 5.29167 l -5.29167,13.229166 h 2.64583 l 5.29167,-13.229166 v -2.645833 h -7.9375 z"
       id="rect4014-3"
       style="fill:#ffffff;fill-opacity:1;fill-rule:evenodd;stroke:none;stroke-width:1.05833" />
    <path
       d="m 234.90918,23.970419 v -5.291666 h -2.64583 v 2.645833 h -5.29167 l 5.29167,-13.2291661 h -2.64583 l -5.29167,13.2291661 v 2.645833 h 7.9375 z"
       id="rect4014-3-3"
       style="fill:#ffffff;fill-opacity:1;fill-rule:evenodd;stroke:none;stroke-width:1.05833" />
  </g>
</svg>
