<?xml version="1.0" encoding="UTF-8" standalone="no"?>
<svg
   xmlns:dc="http://purl.org/dc/elements/1.1/"
   xmlns:cc="http://creativecommons.org/ns#"
   xmlns:rdf="http://www.w3.org/1999/02/22-rdf-syntax-ns#"
   xmlns:svg="http://www.w3.org/2000/svg"
   xmlns="http://www.w3.org/2000/svg"
   xmlns:sodipodi="http://sodipodi.sourceforge.net/DTD/sodipodi-0.dtd"
   xmlns:inkscape="http://www.inkscape.org/namespaces/inkscape"
   width="64.02916mm"
   height="95.779167mm"
   viewBox="0 0 64.02916 95.779167"
   version="1.1"
   id="svg996"
   inkscape:version="1.0.2 (e86c870879, 2021-01-15)"
   sodipodi:docname="two_card.svg">
  <defs
     id="defs990" />
  <sodipodi:namedview
     id="base"
     pagecolor="#ffffff"
     bordercolor="#666666"
     borderopacity="1.0"
     inkscape:pageopacity="0.0"
     inkscape:pageshadow="2"
     inkscape:zoom="0.98994949"
     inkscape:cx="48.829841"
     inkscape:cy="213.26743"
     inkscape:document-units="mm"
     inkscape:current-layer="layer1"
     inkscape:document-rotation="0"
     showgrid="false"
     inkscape:window-width="1200"
     inkscape:window-height="861"
     inkscape:window-x="1200"
     inkscape:window-y="720"
     inkscape:window-maximized="0" />
  <metadata
     id="metadata993">
    <rdf:RDF>
      <cc:Work
         rdf:about="">
        <dc:format>image/svg+xml</dc:format>
        <dc:type
           rdf:resource="http://purl.org/dc/dcmitype/StillImage" />
        <dc:title></dc:title>
      </cc:Work>
    </rdf:RDF>
  </metadata>
  <g
     inkscape:label="Layer 1"
     inkscape:groupmode="layer"
     id="layer1"
     transform="translate(-90.059811,-9.5996037)">
    <rect
       width="63.499996"
       height="95.25"
       rx="10.583333"
       ry="10.583333"
       x="90.324394"
       y="9.8641872"
       id="rect2987-8"
       style="fill:#ffffff;fill-opacity:1;fill-rule:evenodd;stroke:#000000;stroke-width:0.529167;stroke-miterlimit:4;stroke-dasharray:none" />
    <rect
       width="52.916664"
       height="84.666664"
       rx="5.2916665"
       ry="5.2916665"
       x="95.616066"
       y="15.155853"
       id="rect3757-26"
       style="fill:#ffaa00;fill-opacity:1;fill-rule:evenodd;stroke:none;stroke-width:1.05833" />
    <path
       d="m 137.9494,31.03084 c -23.38006,0 -42.333329,18.953277 -42.333329,42.333331 0,5.845016 4.738309,10.583333 10.583329,10.583333 23.38005,0 42.33333,-18.953278 42.33333,-42.333332 0,-5.845016 -4.73832,-10.583332 -10.58333,-10.583332 z"
       id="path3773-0-4-8-4-60"
       style="fill:#ffffff;fill-opacity:1;fill-rule:evenodd;stroke:none;stroke-width:1.05833" />
    <path
       d="m 121.01606,41.614183 c -5.86316,0 -10.58333,4.720156 -10.58333,10.583322 v 1.058333 h 5.29167 v -1.058333 c 0,-2.931583 2.36008,-5.291666 5.29166,-5.291666 2.93159,0 5.29167,2.360083 5.29167,5.291666 0,1.193271 -0.99008,3.534992 -2.02401,4.348713 -5.61426,4.418478 -5.55499,3.688757 -13.85099,9.40962 v 7.408333 h 10.58333 10.58334 v -5.291666 -2.116667 h -5.29167 v 2.116667 h -5.29167 -4.23333 c 6.55116,-4.613 7.03019,-4.501208 12.16351,-9.095052 1.64474,-1.471888 2.65316,-4.393195 2.65316,-6.779948 0,-5.863166 -4.72017,-10.583322 -10.58334,-10.583322 z"
       id="rect3163-52-9-8-1-1-2-7-3-6-5"
       style="fill:#ffaa00;fill-opacity:1;stroke:none;stroke-width:1.05833" />
    <path
       d="m 103.55357,17.801673 c -2.93159,0 -5.291669,2.360084 -5.291669,5.291667 v 0.529166 h 2.645829 V 23.09334 c 0,-1.465792 1.18004,-2.645833 2.64584,-2.645833 1.46579,0 2.64583,1.180041 2.64583,2.645833 0,0.596635 -0.49505,1.76749 -1.01201,2.174356 -2.80712,2.209239 -2.77749,1.844379 -6.925489,4.70481 v 3.704167 h 5.291669 5.29166 V 31.03084 29.972506 h -2.64583 v 1.058334 h -2.64583 -2.11667 c 3.27557,-2.3065 3.51509,-2.250599 6.08175,-4.547521 0.82237,-0.735944 1.32658,-2.196603 1.32658,-3.389979 0,-2.931583 -2.36008,-5.291667 -5.29166,-5.291667 z"
       id="rect3163-52-9-8-1-1-2-7-3-6-0-9"
       style="fill:#ffffff;fill-opacity:1;stroke:none;stroke-width:1.05833" />
    <path
       d="m 140.59523,97.17667 c 2.93158,0 5.29167,-2.360083 5.29167,-5.291666 v -0.529167 h -2.64584 v 0.529167 c 0,1.465792 -1.18004,2.645833 -2.64583,2.645833 -1.46579,0 -2.64583,-1.180041 -2.64583,-2.645833 0,-0.596635 0.49504,-1.767491 1.01201,-2.174356 2.80712,-2.209239 2.77749,-1.844379 6.92549,-4.704811 v -3.704166 h -5.29167 -5.29167 v 2.645833 1.058333 h 2.64584 v -1.058333 h 2.64583 2.11667 c -3.27558,2.3065 -3.5151,2.250599 -6.08176,4.547521 -0.82236,0.735944 -1.32658,2.196602 -1.32658,3.389979 0,2.931583 2.36009,5.291666 5.29167,5.291666 z"
       id="rect3163-52-9-8-1-1-2-7-3-6-0-4"
       style="fill:#ffffff;fill-opacity:1;stroke:none;stroke-width:1.05833" />
  </g>
</svg>
