<?xml version="1.0" encoding="UTF-8" standalone="no"?>
<svg
   xmlns:dc="http://purl.org/dc/elements/1.1/"
   xmlns:cc="http://creativecommons.org/ns#"
   xmlns:rdf="http://www.w3.org/1999/02/22-rdf-syntax-ns#"
   xmlns:svg="http://www.w3.org/2000/svg"
   xmlns="http://www.w3.org/2000/svg"
   width="64.02916mm"
   height="95.779167mm"
   viewBox="0 0 64.02916 95.779167"
   version="1.1"
   id="svg996">
  <defs
     id="defs990" />
  <metadata
     id="metadata993">
    <rdf:RDF>
      <cc:Work
         rdf:about="">
        <dc:format>image/svg+xml</dc:format>
        <dc:type
           rdf:resource="http://purl.org/dc/dcmitype/StillImage" />
        <dc:title></dc:title>
      </cc:Work>
    </rdf:RDF>
  </metadata>
  <g
     id="layer1"
     transform="translate(-170.50203,118.2998)">
    <rect
       width="63.499996"
       height="95.25"
       rx="10.583333"
       ry="10.583333"
       x="170.76662"
       y="-118.03522"
       id="rect2987-8-5-8"
       style="fill:#ffffff;fill-opacity:1;fill-rule:evenodd;stroke:#000000;stroke-width:0.529167;stroke-miterlimit:4;stroke-dasharray:none" />
    <rect
       width="52.916664"
       height="84.666664"
       rx="5.2916665"
       ry="5.2916665"
       x="176.05829"
       y="-112.74355"
       id="rect3757-26-33-9"
       style="fill:#55aa55;fill-opacity:1;fill-rule:evenodd;stroke:none;stroke-width:1.05833" />
    <path
       d="m 218.39162,-96.868562 c -23.38005,0 -42.33333,18.953278 -42.33333,42.333332 0,5.845016 4.73832,10.583333 10.58333,10.583333 23.38006,0 42.33334,-18.953278 42.33334,-42.333332 0,-5.845016 -4.73832,-10.583333 -10.58334,-10.583333 z"
       id="path3773-0-4-8-4-60-3-0"
       style="fill:#ffffff;fill-opacity:1;fill-rule:evenodd;stroke:none;stroke-width:1.05833" />
    <path
       d="m 202.51662,-86.285229 c -4.38376,0 -7.9375,3.553672 -7.9375,7.9375 0,1.797791 0.61311,3.431751 1.62058,4.7625 -2.58544,1.926061 -4.26641,4.980516 -4.26641,8.466666 0,5.863167 4.72017,10.583333 10.58333,10.583333 5.86317,0 10.58334,-4.720166 10.58334,-10.583333 0,-3.48615 -1.68098,-6.540605 -4.26641,-8.466666 1.00747,-1.330749 1.62057,-2.964709 1.62057,-4.7625 0,-4.383828 -3.55373,-7.9375 -7.9375,-7.9375 z m 0,5.291667 c 1.46125,0 2.64584,1.184592 2.64584,2.645833 0,1.461241 -1.18459,2.645833 -2.64584,2.645833 -1.46125,0 -2.64583,-1.184592 -2.64583,-2.645833 0,-1.461241 1.18458,-2.645833 2.64583,-2.645833 z m -0.52916,10.583333 c 0.17831,-0.01799 0.34593,0 0.52916,0 2.93159,0 5.29167,2.360083 5.29167,5.291666 0,2.931583 -2.36008,5.291667 -5.29167,5.291667 -2.93158,0 -5.29166,-2.360084 -5.29166,-5.291667 0,-2.748386 2.08766,-5.021686 4.7625,-5.291666 z"
       id="rect3163-52-9-8-1-1-2-7-3-6-4-6-1-8-8-5"
       style="fill:#55aa55;fill-opacity:1;stroke:none;stroke-width:1.05833" />
    <path
       d="m 183.99579,-110.09773 c -2.19188,0 -3.96875,1.77683 -3.96875,3.96875 0,0.8989 0.30655,1.71588 0.81028,2.38125 -1.29271,0.96302 -2.1332,2.49026 -2.1332,4.233335 0,2.931583 2.36009,5.291666 5.29167,5.291666 2.93158,0 5.29167,-2.360083 5.29167,-5.291666 0,-1.743075 -0.84049,-3.270315 -2.13321,-4.233335 0.50374,-0.66537 0.81029,-1.48235 0.81029,-2.38125 0,-2.19192 -1.77687,-3.96875 -3.96875,-3.96875 z m 0,2.64584 c 0.73062,0 1.32292,0.59229 1.32292,1.32291 0,0.73061 -0.5923,1.32292 -1.32292,1.32292 -0.73062,0 -1.32292,-0.59231 -1.32292,-1.32292 0,-0.73062 0.5923,-1.32291 1.32292,-1.32291 z m -0.26458,5.29165 c 0.0891,-0.01 0.17296,0 0.26458,0 1.46579,0 2.64583,1.18004 2.64583,2.645845 0,1.465792 -1.18004,2.645833 -2.64583,2.645833 -1.46579,0 -2.64583,-1.180041 -2.64583,-2.645833 0,-1.374195 1.04383,-2.510845 2.38125,-2.645845 z"
       id="rect3163-52-9-8-1-1-2-7-3-6-4-6-1-8-8-2-1"
       style="fill:#ffffff;fill-opacity:1;stroke:none;stroke-width:1.05833" />
    <path
       d="m 221.03746,-30.722731 c -2.19189,0 -3.96875,-1.776825 -3.96875,-3.968749 0,-0.898896 0.30654,-1.715876 0.81028,-2.38125 -1.29271,-0.96302 -2.1332,-2.490259 -2.1332,-4.233334 0,-2.931583 2.36008,-5.291666 5.29167,-5.291666 2.93158,0 5.29166,2.360083 5.29166,5.291666 0,1.743075 -0.84048,3.270314 -2.13321,4.233334 0.50375,0.665374 0.8103,1.482354 0.8103,2.38125 0,2.191924 -1.77687,3.968749 -3.96875,3.968749 z m 0,-2.645833 c 0.73062,0 1.32291,-0.592296 1.32291,-1.322916 0,-0.73061 -0.59229,-1.322917 -1.32291,-1.322917 -0.73062,0 -1.32292,0.592307 -1.32292,1.322917 0,0.73062 0.5923,1.322916 1.32292,1.322916 z m -0.26459,-5.291656 c 0.0891,0.0095 0.17297,0 0.26459,0 1.46579,0 2.64583,-1.180041 2.64583,-2.645844 0,-1.465791 -1.18004,-2.645833 -2.64583,-2.645833 -1.4658,0 -2.64584,1.180042 -2.64584,2.645833 0,1.374193 1.04384,2.510843 2.38125,2.645844 z"
       id="rect3163-52-9-8-1-1-2-7-3-6-4-6-1-8-8-2-1-1"
       style="fill:#ffffff;fill-opacity:1;stroke:none;stroke-width:1.05833" />
  </g>
</svg>
