<?xml version="1.0" encoding="UTF-8" standalone="no"?>
<svg
   xmlns:dc="http://purl.org/dc/elements/1.1/"
   xmlns:cc="http://creativecommons.org/ns#"
   xmlns:rdf="http://www.w3.org/1999/02/22-rdf-syntax-ns#"
   xmlns:svg="http://www.w3.org/2000/svg"
   xmlns="http://www.w3.org/2000/svg"
   width="64.02916mm"
   height="95.779167mm"
   viewBox="0 0 64.02916 95.779167"
   version="1.1"
   id="svg996">
  <defs
     id="defs990" />
  <metadata
     id="metadata993">
    <rdf:RDF>
      <cc:Work
         rdf:about="">
        <dc:format>image/svg+xml</dc:format>
        <dc:type
           rdf:resource="http://purl.org/dc/dcmitype/StillImage" />
        <dc:title></dc:title>
      </cc:Work>
    </rdf:RDF>
  </metadata>
  <g
     id="layer1"
     transform="translate(-112.68373,89.702396)">
    <rect
       width="63.499996"
       height="95.25"
       rx="10.583333"
       ry="10.583333"
       x="112.94831"
       y="-89.437813"
       id="rect2987-8-5-6"
       style="fill:#ffffff;fill-opacity:1;fill-rule:evenodd;stroke:#000000;stroke-width:0.529167;stroke-miterlimit:4;stroke-dasharray:none" />
    <rect
       width="52.916664"
       height="84.666664"
       rx="5.2916665"
       ry="5.2916665"
       x="118.23997"
       y="-84.146149"
       id="rect3757-26-33-81"
       style="fill:#ffaa00;fill-opacity:1;fill-rule:evenodd;stroke:none;stroke-width:1.05833" />
    <path
       d="m 160.57331,-68.271162 c -23.38006,0 -42.33333,18.953278 -42.33333,42.333332 0,5.845016 4.73831,10.583333 10.58333,10.583333 23.38005,0 42.33333,-18.953278 42.33333,-42.333332 0,-5.845016 -4.73832,-10.583333 -10.58333,-10.583333 z"
       id="path3773-0-4-8-4-60-3-9"
       style="fill:#ffffff;fill-opacity:1;fill-rule:evenodd;stroke:none;stroke-width:1.05833" />
    <path
       d="m 135.17331,-57.687829 v 10.583333 5.291667 h 10.58333 c 2.93159,0 5.29167,2.360083 5.29167,5.291666 0,2.931583 -2.36008,5.291667 -5.29167,5.291667 -2.93158,0 -5.29166,-2.360084 -5.29166,-5.291667 h -5.29167 c 0,5.863167 4.72017,10.583333 10.58333,10.583333 5.86317,0 10.58334,-4.720166 10.58334,-10.583333 0,-5.863166 -4.72017,-10.583333 -10.58334,-10.583333 h -5.29166 v -5.291666 h 5.29166 9.525 v -5.291667 h -9.525 -5.29166 z"
       id="rect3163-6-0-0-2-7-1-2-19-4"
       style="fill:#ffaa00;fill-opacity:1;stroke:none;stroke-width:1.05833" />
    <path
       d="m 120.88581,-81.500328 v 5.291666 2.645834 h 5.29167 c 1.46579,0 2.64583,1.180041 2.64583,2.645833 0,1.465792 -1.18004,2.645833 -2.64583,2.645833 -1.4658,0 -2.64584,-1.180041 -2.64584,-2.645833 h -2.64583 c 0,2.931583 2.36008,5.291666 5.29167,5.291666 2.93158,0 5.29166,-2.360083 5.29166,-5.291666 0,-2.931583 -2.36008,-5.291667 -5.29166,-5.291667 h -2.64584 v -2.645833 h 2.64584 4.7625 v -2.645833 h -4.7625 -2.64584 z"
       id="rect3163-6-0-0-2-7-1-2-19-2-4"
       style="fill:#ffffff;fill-opacity:1;stroke:none;stroke-width:1.05833" />
    <path
       d="M 168.51081,-2.1253306 V -7.4169971 -10.06283 h -5.29167 c -1.46579,0 -2.64583,-1.180042 -2.64583,-2.645834 0,-1.465791 1.18004,-2.645833 2.64583,-2.645833 1.46579,0 2.64583,1.180042 2.64583,2.645833 h 2.64584 c 0,-2.931583 -2.36009,-5.291666 -5.29167,-5.291666 -2.93158,0 -5.29166,2.360083 -5.29166,5.291666 0,2.9315837 2.36008,5.2916669 5.29166,5.2916669 h 2.64583 v 2.6458333 h -2.64583 -4.7625 v 2.6458332 h 4.7625 2.64583 z"
       id="rect3163-6-0-0-2-7-1-2-19-2-4-6"
       style="fill:#ffffff;fill-opacity:1;stroke:none;stroke-width:1.05833" />
  </g>
</svg>
