<?xml version="1.0" encoding="UTF-8" standalone="no"?>
<svg
   xmlns:dc="http://purl.org/dc/elements/1.1/"
   xmlns:cc="http://creativecommons.org/ns#"
   xmlns:rdf="http://www.w3.org/1999/02/22-rdf-syntax-ns#"
   xmlns:svg="http://www.w3.org/2000/svg"
   xmlns="http://www.w3.org/2000/svg"
   width="64.02916mm"
   height="95.779167mm"
   viewBox="0 0 64.02916 95.779167"
   version="1.1"
   id="svg996">
  <defs
     id="defs990" />
  <metadata
     id="metadata993">
    <rdf:RDF>
      <cc:Work
         rdf:about="">
        <dc:format>image/svg+xml</dc:format>
        <dc:type
           rdf:resource="http://purl.org/dc/dcmitype/StillImage" />
        <dc:title></dc:title>
      </cc:Work>
    </rdf:RDF>
  </metadata>
  <g
     id="layer1"
     transform="translate(-126.79125,33.260189)">
    <rect
       width="63.499996"
       height="95.25"
       rx="10.583333"
       ry="10.583333"
       x="127.05583"
       y="-32.995605"
       id="rect2987-8-5-0"
       style="fill:#ffffff;fill-opacity:1;fill-rule:evenodd;stroke:#000000;stroke-width:0.529167;stroke-miterlimit:4;stroke-dasharray:none" />
    <rect
       width="52.916664"
       height="84.666664"
       rx="5.2916665"
       ry="5.2916665"
       x="132.3475"
       y="-27.703938"
       id="rect3757-26-33-8"
       style="fill:#55aa55;fill-opacity:1;fill-rule:evenodd;stroke:none;stroke-width:1.05833" />
    <path
       d="m 174.68083,-11.828952 c -23.38005,0 -42.33333,18.9532785 -42.33333,42.333332 0,5.845016 4.73832,10.583333 10.58333,10.583333 23.38006,0 42.33333,-18.953278 42.33333,-42.3333318 0,-5.8450161 -4.73831,-10.5833332 -10.58333,-10.5833332 z"
       id="path3773-0-4-8-4-60-3-8"
       style="fill:#ffffff;fill-opacity:1;fill-rule:evenodd;stroke:none;stroke-width:1.05833" />
    <path
       d="M 157.53584,-1.2455977 147.16416,19.921047 v 5.291667 h 12.7 v 5.291687 h 5.29167 v -5.291687 h 3.175 v -5.291667 h -3.175 V 9.3377459 h -5.29167 V 19.921047 h -7.19666 l 10.37166,-21.1666447 z"
       id="rect3980-7-6-2-9-5-60-2"
       style="fill:#55aa55;fill-opacity:1;stroke:none;stroke-width:1.05833" />
    <path
       d="m 140.07333,-25.058118 -5.18583,10.583333 v 2.645844 h 6.35 v 2.6458436 h 2.64583 v -2.6458436 h 1.5875 v -2.645844 h -1.5875 v -5.291656 h -2.64583 v 5.291656 h -3.59834 l 5.18584,-10.583333 z"
       id="rect3980-7-6-2-9-5-60-5-3"
       style="fill:#ffffff;fill-opacity:1;stroke:none;stroke-width:1.05833" />
    <path
       d="m 177.32666,54.316879 5.18584,-10.583333 v -2.645843 h -6.35 v -2.645844 h -2.64584 v 2.645844 h -1.5875 v 2.645843 h 1.5875 v 5.291656 h 2.64584 v -5.291656 h 3.59833 L 174.575,54.316879 Z"
       id="rect3980-7-6-2-9-5-60-5-3-9"
       style="fill:#ffffff;fill-opacity:1;stroke:none;stroke-width:1.05833" />
  </g>
</svg>
