<?xml version="1.0" encoding="UTF-8" standalone="no"?>
<svg
   xmlns:dc="http://purl.org/dc/elements/1.1/"
   xmlns:cc="http://creativecommons.org/ns#"
   xmlns:rdf="http://www.w3.org/1999/02/22-rdf-syntax-ns#"
   xmlns:svg="http://www.w3.org/2000/svg"
   xmlns="http://www.w3.org/2000/svg"
   width="64.02916mm"
   height="95.779167mm"
   viewBox="0 0 64.02916 95.779167"
   version="1.1"
   id="svg996">
  <defs
     id="defs990" />
  <metadata
     id="metadata993">
    <rdf:RDF>
      <cc:Work
         rdf:about="">
        <dc:format>image/svg+xml</dc:format>
        <dc:type
           rdf:resource="http://purl.org/dc/dcmitype/StillImage" />
        <dc:title></dc:title>
      </cc:Work>
    </rdf:RDF>
  </metadata>
  <g
     id="layer1"
     transform="translate(-267.75531,122.72211)">
    <rect
       width="63.499996"
       height="95.25"
       rx="10.583333"
       ry="10.583333"
       x="268.0199"
       y="-122.45753"
       id="rect2987-8-5-81"
       style="fill:#ffffff;fill-opacity:1;fill-rule:evenodd;stroke:#000000;stroke-width:0.529167;stroke-miterlimit:4;stroke-dasharray:none" />
    <rect
       width="52.916664"
       height="84.666664"
       rx="5.2916665"
       ry="5.2916665"
       x="273.31155"
       y="-117.16587"
       id="rect3757-26-33-5"
       style="fill:#55aa55;fill-opacity:1;fill-rule:evenodd;stroke:none;stroke-width:1.05833" />
    <path
       d="m 315.64489,-101.29088 c -23.38005,0 -42.33333,18.953276 -42.33333,42.33333 0,5.845016 4.73832,10.583333 10.58333,10.583333 23.38006,0 42.33333,-18.953278 42.33333,-42.333332 0,-5.845016 -4.73831,-10.583331 -10.58333,-10.583331 z"
       id="path3773-0-4-8-4-60-3-86"
       style="fill:#ffffff;fill-opacity:1;fill-rule:evenodd;stroke:none;stroke-width:1.05833" />
    <path
       d="m 299.76989,-90.707549 c -5.84502,0 -10.58333,4.738317 -10.58333,10.583333 0,5.845016 4.73831,10.583333 10.58333,10.583333 1.92299,0 3.73758,-0.525716 5.29167,-1.422135 v 1.422135 c 0,2.922503 -2.36917,5.291667 -5.29167,5.291667 -2.06826,0 -3.82598,-1.213951 -4.69635,-2.94349 l -4.7625,2.38125 c 1.73489,3.475948 5.30993,5.853906 9.45885,5.853906 5.84502,0 10.58333,-4.738317 10.58333,-10.583333 v -10.583333 c 0,-5.845016 -4.73831,-10.583333 -10.58333,-10.583333 z m 0,5.291667 c 2.9225,0 5.29167,2.369163 5.29167,5.291666 0,2.922503 -2.36917,5.291667 -5.29167,5.291667 -2.9225,0 -5.29167,-2.369164 -5.29167,-5.291667 0,-2.922503 2.36917,-5.291666 5.29167,-5.291666 z m -5.29167,27.516665 v 2.116667 h 10.58334 v -2.116667 z"
       id="path3962-5-8"
       style="fill:#55aa55;fill-opacity:1;fill-rule:evenodd;stroke:none;stroke-width:1.05833" />
    <path
       d="m 281.24906,-98.645038 c 2.92251,0 5.29166,-2.369172 5.29166,-5.291682 v -5.29164 c 0,-2.92251 -2.36915,-5.29168 -5.29166,-5.29168 -2.9225,0 -5.29167,2.36917 -5.29167,5.29168 0,2.92249 2.36917,5.29164 5.29167,5.29164 0.96149,0 1.86879,-0.26285 2.64583,-0.71106 v 0.71106 c 0,1.46126 -1.18458,2.64584 -2.64583,2.64584 -1.03412,0 -1.91299,-0.60697 -2.34817,-1.47174 l -2.38125,1.19062 c 0.86743,1.737977 2.65496,2.926962 4.72942,2.926962 z m 0,-7.937502 c -1.46124,0 -2.64582,-1.18457 -2.64582,-2.64582 0,-1.46125 1.18458,-2.64584 2.64582,-2.64584 1.46125,0 2.64583,1.18459 2.64583,2.64584 0,1.46125 -1.18458,2.64582 -2.64583,2.64582 z"
       id="path3962-5-6-2-1-9"
       style="fill:#ffffff;fill-opacity:1;fill-rule:evenodd;stroke:none;stroke-width:1.05833" />
    <path
       d="m 318.29072,-51.020061 c -2.92251,0 -5.29166,2.369175 -5.29166,5.291677 v 5.291646 c 0,2.922513 2.36915,5.291677 5.29166,5.291677 2.92251,0 5.29167,-2.369164 5.29167,-5.291677 0,-2.922492 -2.36916,-5.291646 -5.29167,-5.291646 -0.96149,0 -1.86879,0.262859 -2.64583,0.711063 v -0.711063 c 0,-1.461251 1.18458,-2.645833 2.64583,-2.645833 1.03412,0 1.91299,0.606965 2.34817,1.47174 l 2.38125,-1.190625 c -0.86743,-1.737974 -2.65496,-2.926959 -4.72942,-2.926959 z m 0,7.9375 c 1.46124,0 2.64583,1.184571 2.64583,2.645823 0,1.461251 -1.18459,2.645844 -2.64583,2.645844 -1.46125,0 -2.64583,-1.184593 -2.64583,-2.645844 0,-1.461252 1.18458,-2.645823 2.64583,-2.645823 z"
       id="path3962-5-6-2-1-8-7"
       style="fill:#ffffff;fill-opacity:1;fill-rule:evenodd;stroke:none;stroke-width:1.05833" />
  </g>
</svg>
