<?xml version="1.0" encoding="UTF-8" standalone="no"?>
<svg
   xmlns:dc="http://purl.org/dc/elements/1.1/"
   xmlns:cc="http://creativecommons.org/ns#"
   xmlns:rdf="http://www.w3.org/1999/02/22-rdf-syntax-ns#"
   xmlns:svg="http://www.w3.org/2000/svg"
   xmlns="http://www.w3.org/2000/svg"
   width="64.02916mm"
   height="95.779167mm"
   viewBox="0 0 64.02916 95.779167"
   version="1.1"
   id="svg996">
  <defs
     id="defs990" />
  <metadata
     id="metadata993">
    <rdf:RDF>
      <cc:Work
         rdf:about="">
        <dc:format>image/svg+xml</dc:format>
        <dc:type
           rdf:resource="http://purl.org/dc/dcmitype/StillImage" />
        <dc:title></dc:title>
      </cc:Work>
    </rdf:RDF>
  </metadata>
  <g
     id="layer1"
     transform="translate(-117.55235,50.462109)">
    <rect
       width="63.499996"
       height="95.25"
       rx="10.583333"
       ry="10.583333"
       x="117.81693"
       y="-50.197525"
       id="rect2987-8-5-7"
       style="fill:#ffffff;fill-opacity:1;fill-rule:evenodd;stroke:#000000;stroke-width:0.529167;stroke-miterlimit:4;stroke-dasharray:none" />
    <rect
       width="52.916664"
       height="84.666664"
       rx="5.2916665"
       ry="5.2916665"
       x="123.1086"
       y="-44.905857"
       id="rect3757-26-33-2"
       style="fill:#ff5555;fill-opacity:1;fill-rule:evenodd;stroke:none;stroke-width:1.05833" />
    <path
       d="m 165.44193,-29.030872 c -23.38006,0 -42.33334,18.953278 -42.33334,42.333332 0,5.845016 4.73832,10.583333 10.58334,10.583333 23.38005,0 42.33333,-18.9532781 42.33333,-42.333332 0,-5.845016 -4.73832,-10.583333 -10.58333,-10.583333 z"
       id="path3773-0-4-8-4-60-3-2"
       style="fill:#ffffff;fill-opacity:1;fill-rule:evenodd;stroke:none;stroke-width:1.05833" />
    <path
       d="m 149.56693,-18.447539 c -5.84502,0 -10.58334,4.738317 -10.58334,10.5833332 v 10.583333 c 0,5.845016 4.73832,10.5833328 10.58334,10.5833328 5.84501,0 10.58333,-4.7383168 10.58333,-10.5833328 0,-5.8450161 -4.73832,-10.583333 -10.58333,-10.583333 -1.92299,0 -3.73758,0.5257165 -5.29167,1.4221353 v -1.4221353 c 0,-2.9225032 2.36916,-5.2916662 5.29167,-5.2916662 2.06826,0 3.82598,1.21395 4.69635,2.943489 l 4.7625,-2.38125 c -1.73489,-3.475947 -5.30993,-5.853906 -9.45885,-5.853906 z m 0,15.8749997 c 2.9225,0 5.29166,2.36916373 5.29166,5.2916665 0,2.9225027 -2.36916,5.2916665 -5.29166,5.2916665 -2.92251,0 -5.29167,-2.3691638 -5.29167,-5.2916665 0,-2.92250277 2.36916,-5.2916665 5.29167,-5.2916665 z m -5.29167,16.9333323 v 2.116667 h 10.58333 v -2.116667 z"
       id="path3962-5-6-2"
       style="fill:#ff5555;fill-opacity:1;fill-rule:evenodd;stroke:none;stroke-width:1.05833" />
    <path
       d="m 131.04609,-42.260038 c -2.92251,0 -5.29166,2.369174 -5.29166,5.291677 v 5.291645 c 0,2.922514 2.36915,5.291677 5.29166,5.291677 2.92251,0 5.29167,-2.369163 5.29167,-5.291677 0,-2.922492 -2.36916,-5.291645 -5.29167,-5.291645 -0.96149,0 -1.86879,0.262858 -2.64583,0.711062 v -0.711062 c 0,-1.461251 1.18458,-2.645833 2.64583,-2.645833 1.03412,0 1.91299,0.606964 2.34817,1.471739 l 2.38125,-1.190625 c -0.86743,-1.737974 -2.65496,-2.926958 -4.72942,-2.926958 z m 0,7.9375 c 1.46125,0 2.64583,1.184571 2.64583,2.645822 0,1.461252 -1.18458,2.645844 -2.64583,2.645844 -1.46125,0 -2.64583,-1.184592 -2.64583,-2.645844 0,-1.461251 1.18458,-2.645822 2.64583,-2.645822 z"
       id="path3962-5-6-2-1"
       style="fill:#ffffff;fill-opacity:1;fill-rule:evenodd;stroke:none;stroke-width:1.05833" />
    <path
       d="m 168.08776,37.114959 c 2.92251,0 5.29167,-2.369174 5.29167,-5.291677 v -5.291645 c 0,-2.922513 -2.36916,-5.291677 -5.29167,-5.291677 -2.9225,0 -5.29167,2.369164 -5.29167,5.291677 0,2.922492 2.36917,5.291645 5.29167,5.291645 0.9615,0 1.86879,-0.262858 2.64583,-0.711062 v 0.711062 c 0,1.461252 -1.18458,2.645834 -2.64583,2.645834 -1.03412,0 -1.91299,-0.606965 -2.34817,-1.47174 l -2.38125,1.190625 c 0.86743,1.737974 2.65496,2.926958 4.72942,2.926958 z m 0,-7.937499 c -1.46124,0 -2.64582,-1.184572 -2.64582,-2.645823 0,-1.461251 1.18458,-2.645844 2.64582,-2.645844 1.46125,0 2.64583,1.184593 2.64583,2.645844 0,1.461251 -1.18458,2.645823 -2.64583,2.645823 z"
       id="path3962-5-6-2-1-8"
       style="fill:#ffffff;fill-opacity:1;fill-rule:evenodd;stroke:none;stroke-width:1.05833" />
  </g>
</svg>
