<?xml version="1.0" encoding="UTF-8" standalone="no"?>
<svg
   xmlns:dc="http://purl.org/dc/elements/1.1/"
   xmlns:cc="http://creativecommons.org/ns#"
   xmlns:rdf="http://www.w3.org/1999/02/22-rdf-syntax-ns#"
   xmlns:svg="http://www.w3.org/2000/svg"
   xmlns="http://www.w3.org/2000/svg"
   width="64.02916mm"
   height="95.779167mm"
   viewBox="0 0 64.02916 95.779167"
   version="1.1"
   id="svg996">
  <defs
     id="defs990" />
  <metadata
     id="metadata993">
    <rdf:RDF>
      <cc:Work
         rdf:about="">
        <dc:format>image/svg+xml</dc:format>
        <dc:type
           rdf:resource="http://purl.org/dc/dcmitype/StillImage" />
        <dc:title></dc:title>
      </cc:Work>
    </rdf:RDF>
  </metadata>
  <g
     id="layer1"
     transform="translate(-287.52347,4.680148)">
    <rect
       width="63.499996"
       height="95.25"
       rx="10.583333"
       ry="10.583333"
       x="287.78806"
       y="-4.4155645"
       id="rect2987-8-5-81-5"
       style="fill:#ffffff;fill-opacity:1;fill-rule:evenodd;stroke:#000000;stroke-width:0.529167;stroke-miterlimit:4;stroke-dasharray:none" />
    <rect
       width="52.916664"
       height="84.666664"
       rx="5.2916665"
       ry="5.2916665"
       x="293.07971"
       y="0.87610203"
       id="rect3757-26-33-5-3"
       style="fill:#ffaa00;fill-opacity:1;fill-rule:evenodd;stroke:none;stroke-width:1.05833" />
    <path
       d="m 335.41305,16.751088 c -23.38006,0 -42.33333,18.953278 -42.33333,42.333332 0,5.845016 4.73831,10.583333 10.58333,10.583333 23.38005,0 42.33333,-18.953278 42.33333,-42.333332 0,-5.845016 -4.73832,-10.583333 -10.58333,-10.583333 z"
       id="path3773-0-4-8-4-60-3-86-2"
       style="fill:#ffffff;fill-opacity:1;fill-rule:evenodd;stroke:none;stroke-width:1.05833" />
    <path
       d="m 319.57112,27.334464 c -4.06276,-0.0053 -8.14096,1.534488 -11.24479,4.630208 -6.20765,6.191482 -6.22451,16.248855 -0.033,22.456509 6.19148,6.207654 16.24886,6.224514 22.45651,0.03302 6.20765,-6.191482 6.22451,-16.248855 0.033,-22.456509 -3.09574,-3.103827 -7.14896,-4.657979 -11.21172,-4.663281 z m -0.033,5.291666 c 1.85196,0.0021 3.71234,0.486929 5.35781,1.455208 L 310.41,48.567275 c -2.39221,-4.061682 -1.83813,-9.382654 1.65364,-12.865364 2.06922,-2.063824 4.76597,-3.079305 7.47448,-3.075781 z m 9.12813,5.192448 c 2.40873,4.064772 1.84508,9.408794 -1.65365,12.898437 -3.49536,3.486245 -8.80839,3.998679 -12.86536,1.5875 z"
       id="path5897-6-5"
       style="fill:#ffaa00;fill-opacity:1;fill-rule:evenodd;stroke:none;stroke-width:1.05833" />
    <path
       d="m 303.67954,3.5219219 c -2.031,-0.00318 -4.06972,0.7671752 -5.62134,2.3148924 -3.10323,3.095445 -3.11166,8.1236717 -0.0165,11.2272127 3.09516,3.10353 8.12292,3.111965 11.22617,0.01651 3.10323,-3.095445 3.11166,-8.1236714 0.0165,-11.2272021 -1.54759,-1.5517812 -3.57381,-2.3287777 -5.60483,-2.3314341 z m -0.0165,2.6456004 c 0.9258,0.00105 1.85583,0.2434273 2.67841,0.7275195 l -7.24162,7.2423022 c -1.19589,-2.030656 -0.91889,-4.6908934 0.82667,-6.4320845 1.03442,-1.0318221 2.38254,-1.5395152 3.73654,-1.5377372 z m 4.56321,2.5959646 c 1.20414,2.0322121 0.92237,4.7039741 -0.82667,6.4486261 -1.74735,1.742969 -4.40338,1.99916 -6.43148,0.793676 z"
       id="path5897-6-8-2"
       style="fill:#ffffff;fill-opacity:1;fill-rule:evenodd;stroke:none;stroke-width:1.05833" />
    <path
       d="m 335.42954,67.02192 c -2.031,-0.0032 -4.06972,0.767175 -5.62134,2.314892 -3.10323,3.095445 -3.11166,8.123672 -0.0165,11.227213 3.09516,3.10353 8.12292,3.111965 11.22616,0.01651 3.10324,-3.095445 3.11167,-8.123671 0.0165,-11.227202 -1.54759,-1.551781 -3.5738,-2.328778 -5.60482,-2.331434 z m -0.0165,2.6456 c 0.9258,0.001 1.85583,0.243428 2.67841,0.72752 l -7.24162,7.242302 c -1.19589,-2.030656 -0.9189,-4.690893 0.82667,-6.432085 1.03442,-1.031822 2.38254,-1.539515 3.73654,-1.537737 z m 4.56321,2.595965 c 1.20414,2.032212 0.92237,4.703974 -0.82667,6.448626 -1.74735,1.742969 -4.40338,1.99916 -6.43148,0.793676 z"
       id="path5897-6-8-5"
       style="fill:#ffffff;fill-opacity:1;fill-rule:evenodd;stroke:none;stroke-width:1.05833" />
  </g>
</svg>
