<?xml version="1.0" encoding="UTF-8" standalone="no"?>
<svg
   xmlns:dc="http://purl.org/dc/elements/1.1/"
   xmlns:cc="http://creativecommons.org/ns#"
   xmlns:rdf="http://www.w3.org/1999/02/22-rdf-syntax-ns#"
   xmlns:svg="http://www.w3.org/2000/svg"
   xmlns="http://www.w3.org/2000/svg"
   width="64.02916mm"
   height="95.779167mm"
   viewBox="0 0 64.02916 95.779167"
   version="1.1"
   id="svg996">
  <g
     id="layer1"
     transform="translate(-32.120079,31.340967)">
    <rect
       width="63.499996"
       height="95.25"
       rx="10.583333"
       ry="10.583333"
       x="32.384663"
       y="-31.076384"
       id="rect2987-8-5"
       style="fill:#ffffff;fill-opacity:1;fill-rule:evenodd;stroke:#000000;stroke-width:0.529167;stroke-miterlimit:4;stroke-dasharray:none" />
    <rect
       width="52.916664"
       height="84.666664"
       rx="5.2916665"
       ry="5.2916665"
       x="37.676331"
       y="-25.784718"
       id="rect3757-26-33"
       style="fill:#ff5555;fill-opacity:1;fill-rule:evenodd;stroke:none;stroke-width:1.05833" />
    <path
       d="m 80.009662,-9.9097318 c -23.380053,0 -42.333332,18.9532783 -42.333332,42.3333318 0,5.845016 4.738317,10.583333 10.583333,10.583333 23.380054,0 42.333332,-18.953278 42.333332,-42.33333183 0,-5.84501607 -4.738316,-10.58333297 -10.583333,-10.58333297 z"
       id="path3773-0-4-8-4-60-3"
       style="fill:#ffffff;fill-opacity:1;fill-rule:evenodd;stroke:none;stroke-width:1.05833" />
    <path
       d="m 64.134663,0.67360117 c -4.383765,0 -7.9375,3.55373503 -7.9375,7.93749973 h 5.291667 c 0,-1.4612513 1.184582,-2.6458332 2.645833,-2.6458332 1.461251,0 2.645833,1.1845819 2.645833,2.6458332 0,1.4612511 -1.184582,2.6458331 -2.645833,2.6458331 h -3.175 v 5.291667 h 3.175 c 2.931583,0 5.291666,2.360083 5.291666,5.291666 0,2.931583 -2.360083,5.291667 -5.291666,5.291667 -2.931583,0 -5.291667,-2.360084 -5.291667,-5.291667 H 53.55133 c 0,5.863167 4.720167,10.583333 10.583333,10.583333 5.863166,0 10.583333,-4.720166 10.583333,-10.583333 0,-3.486086 -1.680972,-6.540616 -4.266406,-8.466666 1.00747,-1.330727 1.620573,-2.96473 1.620573,-4.7625001 0,-4.3837647 -3.553735,-7.93749973 -7.9375,-7.93749973 z"
       id="rect3163-52-9-8-1-1-2-7-3-6-4-6-1-8-7-0-1"
       style="fill:#ff5555;fill-opacity:1;stroke:none;stroke-width:1.05833" />
    <path
       d="m 45.61383,-23.138898 c -2.191882,0 -3.96875,1.776867 -3.96875,3.96875 h 2.645834 c 0,-0.730631 0.592296,-1.322917 1.322916,-1.322917 0.730621,0 1.322917,0.592286 1.322917,1.322917 0,0.73062 -0.592296,1.322916 -1.322917,1.322916 h -1.5875 v 2.645823 h 1.5875 c 1.465792,0 2.645833,1.180042 2.645833,2.645844 0,1.465792 -1.180041,2.6458332 -2.645833,2.6458332 -1.465791,0 -2.645833,-1.1800412 -2.645833,-2.6458332 h -2.645833 c 0,2.9315832 2.360083,5.2916664 5.291666,5.2916664 2.931583,0 5.291667,-2.3600832 5.291667,-5.2916664 0,-1.743043 -0.840486,-3.270313 -2.133209,-4.233333 0.503746,-0.665374 0.810292,-1.482365 0.810292,-2.38125 0,-2.191883 -1.776867,-3.96875 -3.96875,-3.96875 z"
       id="rect3163-52-9-8-1-1-2-7-3-6-4-6-1-8-7-0-6-2"
       style="fill:#ffffff;fill-opacity:1;stroke:none;stroke-width:1.05833" />
    <path
       d="m 82.655496,56.236099 c 2.191882,0 3.96875,-1.776867 3.96875,-3.968749 h -2.645834 c 0,0.730631 -0.592296,1.322916 -1.322916,1.322916 -0.730621,0 -1.322917,-0.592285 -1.322917,-1.322916 0,-0.730621 0.592296,-1.322917 1.322917,-1.322917 h 1.5875 V 48.29861 h -1.5875 c -1.465792,0 -2.645834,-1.180041 -2.645834,-2.645844 0,-1.465791 1.180042,-2.645833 2.645834,-2.645833 1.465791,0 2.645833,1.180042 2.645833,2.645833 h 2.645833 c 0,-2.931583 -2.360083,-5.291666 -5.291666,-5.291666 -2.931583,0 -5.291667,2.360083 -5.291667,5.291666 0,1.743044 0.840486,3.270314 2.133209,4.233334 -0.503746,0.665374 -0.810292,1.482365 -0.810292,2.38125 0,2.191882 1.776867,3.968749 3.96875,3.968749 z"
       id="rect3163-52-9-8-1-1-2-7-3-6-4-6-1-8-7-0-6-2-6"
       style="fill:#ffffff;fill-opacity:1;stroke:none;stroke-width:1.05833" />
  </g>
</svg>
